# xmcd
#
# Track frame offsets:
#	150
#	15675
#	34412
#	48352
#	67597
#	81002
#	96117
#	107850
#	128154
#	145917
#
# Disc length: 2119 seconds
#
# Revision: 0
# Processed by: cddbd v1.5.1PL2 Copyright (c) Steve Scherf et al.
# Submitted via: dBpowerAMP V4.0
#
DISCID=7e08450a
DTITLE=David Allan Coe - Country Outlaw
DYEAR=2003
DGENRE=Country
TTITLE0=Son of The South
TTITLE1=Talkin' to The Blues
TTITLE2=When I Was a Young Man
TTITLE3=If That Ain't Country - Part II
TTITLE4=Panheads Forever
TTITLE5=Drank My Wife Away
TTITLE6=Take This Job And Shove It
TTITLE7=You Never Even Called Me By My Name
TTITLE8=Only God Knows Why
TTITLE9=The Ride
EXTD=
EXTT0=
EXTT1=
EXTT2=
EXTT3=
EXTT4=
EXTT5=
EXTT6=
EXTT7=
EXTT8=
EXTT9=
PLAYORDER=
